<svg width="114" height="92" viewBox="0 0 114 92" fill="none" xmlns="http://www.w3.org/2000/svg">
<path d="M107.055 11.0083H112.811C113.441 11.0083 113.891 11.6379 113.711 12.2676L100.219 52.3841C99.9488 53.1037 99.2292 53.6434 98.5096 53.6434H89.6948C89.245 53.6434 88.9752 53.1937 89.1551 52.8339L101.928 14.876C102.557 12.5374 104.716 11.0083 107.055 11.0083Z" fill="white"/>
<path d="M107.325 0.034668H98.1499C97.7001 0.034668 97.2504 0.30451 97.0705 0.844195L93.9223 10.2887C93.8324 10.6485 94.1022 11.0982 94.462 11.0982H98.4197C98.5996 11.0982 98.7795 11.0982 98.9594 11.0982C101.568 10.9183 103.817 9.65905 105.346 7.77015C105.346 7.77015 105.616 7.41036 105.705 7.32041C106.335 6.51088 106.785 5.61141 107.145 4.62199C107.504 3.54262 107.954 2.46325 108.314 1.38388C108.404 0.6643 107.954 0.034668 107.325 0.034668Z" fill="url(#paint0_linear_847_86)"/>
<path d="M38.5147 0.034668H18.5464C18.0967 0.034668 17.6469 0.30451 17.467 0.844195L14.3189 10.2887C14.2289 10.6485 14.4988 11.0982 14.8586 11.0982H29.52C29.6999 11.0982 29.8798 11.0982 30.0597 11.0982C32.6682 10.9183 34.9169 9.65905 36.446 7.77015C36.446 7.77015 36.7158 7.41036 36.8057 7.32041C37.4354 6.51088 37.8851 5.61141 38.2449 4.62199C38.6047 3.54262 39.0544 2.46325 39.4142 1.38388C39.5941 0.6643 39.1444 0.034668 38.5147 0.034668Z" fill="#CB3533"/>
<path d="M89.9647 13.5268C89.2451 10.1088 87.5361 7.0506 84.9276 4.80191C84.5678 4.53207 84.208 4.17228 83.7583 3.90243C82.0493 2.64317 80.1604 1.65375 78.0916 1.02412C76.6524 0.574379 75.2133 0.304536 73.6842 0.124641C72.6948 0.034694 70.626 -0.235148 69.8164 0.484431C69.5466 0.754274 69.3667 1.02412 69.2767 1.29396C69.0069 1.92359 65.9487 11.0982 65.9487 11.0982C66.6683 11.0982 67.3878 11.1882 68.1074 11.2781C68.3773 11.2781 69.2767 11.458 69.3667 11.458C70.9857 11.8178 72.335 12.3575 73.5942 13.167C74.1339 13.5268 74.5836 13.8866 75.0334 14.3363C75.4831 14.7861 75.9329 15.2358 76.2927 15.7755C77.2821 17.1247 77.8218 18.7438 78.0916 20.4528C78.2715 22.2517 78.0016 23.9607 77.462 25.6697C77.372 25.8496 77.372 26.0295 77.2821 26.2094C75.1233 32.8655 68.917 39.4317 62.1709 41.7703C61.1815 42.1301 60.1021 42.3999 59.1127 42.4899C57.8534 42.6698 56.6841 42.7597 55.4248 42.7597L66.0386 11.1882H54.9751L40.6735 53.6434H51.6471H51.737C53.9857 53.6434 56.4143 53.5534 58.4831 53.3735C59.2026 53.2836 59.8323 53.2836 60.372 53.1936C62.5307 52.9238 63.7 52.654 64.3296 52.4741C79.171 48.6063 89.1551 33.4951 90.1446 19.4633C90.4144 17.4845 90.3245 15.4157 89.9647 13.5268Z" fill="white"/>
<path d="M20.4353 53.2837C20.7951 53.2837 21.9644 53.1038 22.4142 53.0139C26.4618 52.4742 30.3295 50.4953 33.1179 47.3472C34.0174 46.3578 34.8269 45.1884 35.5465 44.0191C36.356 42.58 37.4354 39.9715 37.8851 38.5323C38.6047 36.3736 47.1497 10.9185 47.1497 10.9185H42.2925C38.6047 10.9185 35.3666 13.2571 34.1973 16.765C31.8586 23.601 28.3507 34.035 28.3507 34.035C27.9009 35.3842 27.5412 36.8233 26.6417 37.9926C25.9221 38.9821 24.9327 39.7916 23.8533 40.4212C21.5147 41.6805 18.7263 42.1302 16.1178 42.3101C12.0702 42.58 8.83208 42.49 4.78445 42.49C3.97492 42.49 3.34529 43.0297 3.07545 43.7493L0.0172341 52.834C-0.0727134 53.1938 0.197129 53.6435 0.646866 53.6435L12.7898 53.5536C12.7898 53.5536 15.1284 53.5536 17.2871 53.4636C17.7369 53.4636 19.0861 53.4636 20.4353 53.2837Z" fill="white"/>
<path d="M64.4855 74.8123C63.3285 83.3528 56.8825 89.9159 47.916 89.9159C40.6435 89.9159 37.2966 85.1197 38.123 79.1036C39.3213 70.5631 45.7673 64 54.7339 64C61.965 64 65.3119 68.7961 64.4855 74.8123ZM59.1138 74.8964C59.6923 70.6472 57.8329 67.7023 53.8248 67.7023C47.8746 67.7023 44.2797 73.8867 43.5773 78.9773C42.9988 83.2265 44.8169 86.1715 48.8663 86.1715C54.7752 86.2136 58.4114 79.9871 59.1138 74.8964Z" fill="url(#paint1_linear_847_86)"/>
<path d="M86.4681 74.6862C86.3441 75.6959 86.0962 76.5794 85.4764 78.5147L82.0054 89.4953H76.9643L80.146 79.4403C80.6005 78.0519 80.8898 77.0422 80.9724 76.2849C81.2203 74.5179 80.5179 73.2979 78.2453 73.2979C75.7247 73.3399 73.2042 75.4435 71.51 80.7865L68.7829 89.4953H63.7417L69.7745 70.3108H74.7743L73.8653 73.2558L76.0553 71.1522C77.7494 70.1846 79.3196 69.8059 81.179 69.8059C85.1871 69.7639 86.8813 71.7833 86.4681 74.6862Z" fill="url(#paint2_linear_847_86)"/>
<path d="M92.8728 82.1748C92.4596 85.288 93.7818 86.5081 95.8892 86.5081C98.0379 86.5081 100.021 85.3301 100.972 83.2686H106.013C103.823 87.7282 99.6494 90 94.8975 90C90.2283 90 86.9226 87.6019 87.6664 82.1748C88.5754 75.5696 93.5339 69.7638 100.724 69.7638C106.178 69.7638 108.492 73.0874 107.913 77.3786C107.748 78.5987 107.294 80.0291 106.757 81.2071L92.9967 81.165L92.8728 82.1748ZM94.0298 77.9256H102.707C102.79 77.589 102.831 77.3366 102.872 77.0841C103.203 74.6861 102.129 73.2557 99.8146 73.2557C97.1288 73.2977 95.2281 75.2751 94.0298 77.9256Z" fill="url(#paint3_linear_847_86)"/>
<defs>
<linearGradient id="paint0_linear_847_86" x1="94.8567" y1="3.10781" x2="109.886" y2="9.1342" gradientUnits="userSpaceOnUse">
<stop offset="0.0110828" stop-color="#4894FF"/>
<stop offset="0.5" stop-color="#00FFCD"/>
<stop offset="1" stop-color="#7C00FF"/>
</linearGradient>
<linearGradient id="paint1_linear_847_86" x1="42.6203" y1="71.2221" x2="92.8511" y2="112.824" gradientUnits="userSpaceOnUse">
<stop offset="0.0110828" stop-color="#4894FF"/>
<stop offset="0.5" stop-color="#00FFCD"/>
<stop offset="1" stop-color="#7C00FF"/>
</linearGradient>
<linearGradient id="paint2_linear_847_86" x1="42.6203" y1="71.2221" x2="92.8511" y2="112.824" gradientUnits="userSpaceOnUse">
<stop offset="0.0110828" stop-color="#4894FF"/>
<stop offset="0.5" stop-color="#00FFCD"/>
<stop offset="1" stop-color="#7C00FF"/>
</linearGradient>
<linearGradient id="paint3_linear_847_86" x1="42.6203" y1="71.2221" x2="92.8511" y2="112.824" gradientUnits="userSpaceOnUse">
<stop offset="0.0110828" stop-color="#4894FF"/>
<stop offset="0.5" stop-color="#00FFCD"/>
<stop offset="1" stop-color="#7C00FF"/>
</linearGradient>
</defs>
</svg>
