<svg width="58" height="78" viewBox="0 0 58 78" fill="none" xmlns="http://www.w3.org/2000/svg">
<g filter="url(#filter0_d_819_283)">
<path d="M20.4884 45.9978C16.4001 42.0638 16.4001 35.5203 20.4885 31.5863L34.2265 18.3668C36.7677 15.9215 41 17.7225 41 21.2491L41 56.3349C41 59.8616 36.7677 61.6625 34.2265 59.2172L20.4884 45.9978Z" fill="url(#paint0_linear_819_283)" shape-rendering="crispEdges"/>
<path d="M20.1418 31.226C15.849 35.3567 15.849 42.2274 20.1418 46.3581L33.8798 59.5775C36.7387 62.3285 41.5 60.3024 41.5 56.3349L41.5 21.2491C41.5 17.2817 36.7387 15.2556 33.8798 18.0065L20.1418 31.226Z" stroke="#00FFCE" stroke-opacity="0.5" shape-rendering="crispEdges"/>
</g>
<defs>
<filter id="filter0_d_819_283" x="0.42218" y="0.239136" width="57.5778" height="77.1058" filterUnits="userSpaceOnUse" color-interpolation-filters="sRGB">
<feFlood flood-opacity="0" result="BackgroundImageFix"/>
<feColorMatrix in="SourceAlpha" type="matrix" values="0 0 0 0 0 0 0 0 0 0 0 0 0 0 0 0 0 0 127 0" result="hardAlpha"/>
<feOffset/>
<feGaussianBlur stdDeviation="8"/>
<feComposite in2="hardAlpha" operator="out"/>
<feColorMatrix type="matrix" values="0 0 0 0 0 0 0 0 0 1 0 0 0 0 0.807843 0 0 0 0.3 0"/>
<feBlend mode="normal" in2="BackgroundImageFix" result="effect1_dropShadow_819_283"/>
<feBlend mode="normal" in="SourceGraphic" in2="effect1_dropShadow_819_283" result="shape"/>
</filter>
<linearGradient id="paint0_linear_819_283" x1="13" y1="65.735" x2="18.676" y2="9.59207" gradientUnits="userSpaceOnUse">
<stop stop-color="#4895FF"/>
<stop offset="0.317708" stop-color="#00FFCE"/>
<stop offset="1" stop-color="#FF00FF"/>
</linearGradient>
</defs>
</svg>
