<svg width="100" height="89" viewBox="0 0 100 89" fill="none" xmlns="http://www.w3.org/2000/svg">
<path d="M78.4641 7.39989C76.3205 3.68715 72.359 1.40002 68.0719 1.40002H31.9281C27.641 1.40002 23.6795 3.68715 21.5359 7.39989L3.46428 38.6999C1.32058 42.4128 1.32058 46.9873 3.46428 50.7002L21.5359 82.0002C23.6795 85.7129 27.641 88 31.9281 88H68.0719C72.359 88 76.3205 85.7129 78.4641 82.0002L96.5357 50.7002C98.6794 46.9873 98.6794 42.4128 96.5357 38.6999L78.4641 7.39989Z" stroke="url(#paint0_linear_819_249)" stroke-width="1.5"/>
<mask id="mask0_819_249" style="mask-type:alpha" maskUnits="userSpaceOnUse" x="9" y="8" width="82" height="74">
<path d="M74.7213 14.3624C72.572 10.6708 68.6224 8.40002 64.3508 8.40002H35.6492C31.3776 8.40002 27.428 10.6708 25.2787 14.3624L11.015 38.8624C8.84238 42.5943 8.84238 47.2058 11.0151 50.9376L25.2788 75.4376C27.428 79.1292 31.3776 81.4 35.6492 81.4H64.3508C68.6224 81.4 72.572 79.1292 74.7213 75.4376L88.985 50.9376C91.1576 47.2058 91.1576 42.5943 88.9849 38.8624L74.7213 14.3624Z" fill="#D9D9D9"/>
</mask>
<g mask="url(#mask0_819_249)">
<path d="M98.5 -7.29622V4.64551H1.5V-7.29622C1.5 -9.70822 3.39176 -11.6 5.8274 -11.6H94.1726C96.5609 -11.6 98.5 -9.68457 98.5 -7.29622ZM43.7099 -3.48905C43.7099 -6.01928 41.6763 -8.05293 39.146 -8.05293C36.6158 -8.05293 34.5822 -5.99564 34.5822 -3.48905C34.5822 -0.958825 36.6394 1.07482 39.146 1.07482C41.6526 1.07482 43.7099 -0.958825 43.7099 -3.48905ZM31.0115 -3.48905C31.0115 -6.01928 28.9542 -8.05293 26.4476 -8.05293C23.9174 -8.05293 21.8837 -5.99564 21.8837 -3.48905C21.8837 -0.958825 23.941 1.07482 26.4476 1.07482C28.9542 1.07482 31.0115 -0.958825 31.0115 -3.48905ZM18.2894 -3.48905C18.2894 -6.01928 16.2557 -8.05293 13.7255 -8.05293C11.1953 -8.05293 9.16163 -5.99564 9.16163 -3.48905C9.16163 -0.958825 11.2189 1.07482 13.7255 1.07482C16.2557 1.07482 18.2894 -0.958825 18.2894 -3.48905ZM68.4447 40.0214C68.5865 45.1765 66.5529 50.2133 62.8167 53.8076C60.2864 56.2433 58.9149 59.4829 58.9149 62.8881V64.9454H41.0614V63.0063C41.0614 59.5775 39.619 56.2196 37.1124 53.7603C33.518 50.2606 31.5317 45.5548 31.5317 40.518C31.5317 35.363 33.5653 30.6099 37.3252 27.0865C40.8013 23.8232 45.247 22.0733 50 22.0733C50.3784 22.0733 50.7803 22.0734 51.1587 22.1206C60.7357 22.7355 68.1845 30.3971 68.4447 40.0214ZM60.5466 49.5039V44.0651C60.5466 43.6631 60.3337 43.3084 60.0263 43.0955C59.6953 42.8591 59.2933 42.8118 58.9386 42.9773C58.0873 43.332 57.2123 43.1192 56.6212 42.5044C56.4217 42.2932 56.2667 42.0442 56.1651 41.772C56.0636 41.4999 56.0176 41.2102 56.03 40.92C56.1009 39.8559 56.9522 39.0046 57.9927 38.9337H58.04C58.3237 38.8864 58.6312 38.9573 58.9149 39.0755C59.2696 39.2174 59.6953 39.1701 60.0027 38.9573C60.3101 38.7445 60.5229 38.3661 60.5229 37.9878V32.5726C60.5229 31.3903 59.577 30.4444 58.3947 30.4444H54.3983V30.1606C54.3038 27.9142 52.5302 26.117 50.2838 25.9515C49.0778 25.9042 47.8481 26.3298 46.9732 27.1575C46.0746 28.0087 45.578 29.1675 45.578 30.3734V30.468H41.6053C40.423 30.468 39.4771 31.4139 39.4771 32.5963V37.9878C39.4771 38.3661 39.6663 38.6972 39.9737 38.9337C40.2811 39.1701 40.6831 39.2174 41.0378 39.0755C41.3688 38.9573 41.6999 38.8864 42.0073 38.91C43.0478 38.981 43.8991 39.8559 43.97 40.8964C43.9937 41.4875 43.7808 42.0551 43.3788 42.4807C42.8113 43.1192 41.9127 43.332 41.0614 42.9773C40.7067 42.8354 40.2811 42.8591 39.9737 43.0955C39.6663 43.3084 39.4534 43.6867 39.4534 44.0651V49.4802C39.4534 50.6626 40.3993 51.6085 41.5817 51.6085H45.578V51.703C45.578 52.9563 46.0982 54.1387 46.9968 54.9663C47.8245 55.723 48.8886 56.1487 50 56.1487H50.2838C52.5539 55.9831 54.3038 54.186 54.3983 51.9395V51.6321H58.4183C59.6007 51.6321 60.5466 50.6862 60.5466 49.5039ZM58.9149 70.5024V71.0463C58.9149 72.0868 58.0873 72.8908 57.0232 72.8908C56.9522 72.8671 56.8813 72.8671 56.7867 72.8671C56.7158 72.8671 56.6212 72.8671 56.5502 72.8908H43.4971C43.4261 72.8671 43.3315 72.8671 43.2606 72.8671C43.1897 72.8671 43.0951 72.8671 43.0241 72.8908H42.9059C41.8891 72.8908 41.0614 72.0631 41.0614 71.0463V67.2628H58.9149V70.0295C58.8913 70.1004 58.8913 70.1714 58.8913 70.2659C58.8913 70.3369 58.8913 70.4315 58.9149 70.5024ZM58.3474 45.5785V49.3856H53.0978C52.6958 49.3856 52.3411 49.5985 52.1282 49.9059C51.8918 50.2369 51.8445 50.6389 52.01 50.9936C52.1282 51.2774 52.1992 51.5848 52.1755 51.8922C52.1282 52.9327 51.2769 53.8076 50.2128 53.8786C49.6216 53.9022 49.0541 53.713 48.6285 53.311C48.2028 52.909 47.9427 52.3415 47.9427 51.7503C47.9427 51.4902 47.99 51.2065 48.1082 50.9463C48.2501 50.5916 48.2028 50.166 47.99 49.8586C47.7772 49.5512 47.3988 49.3383 47.0205 49.3383H41.7945V45.6021C43.0241 45.6258 44.2301 45.1292 45.0814 44.2306C45.9564 43.3557 46.382 42.197 46.3111 40.9437C46.1692 38.6972 44.3957 36.9237 42.1492 36.7818H41.8181V32.951H47.0205C47.4225 32.951 47.7535 32.7381 47.99 32.4307C48.2265 32.0997 48.2738 31.6977 48.1082 31.343C47.99 31.0829 47.9427 30.7991 47.9427 30.539C47.9427 29.9478 48.1792 29.4039 48.6048 29.0019C49.0305 28.5999 49.598 28.3635 50.1892 28.4107C51.2533 28.4817 52.1046 29.3566 52.1519 30.3971C52.1755 30.7045 52.1282 31.0119 51.9863 31.2957C51.8445 31.6504 51.8918 32.076 52.1046 32.3834C52.3174 32.6909 52.6958 32.9037 53.0741 32.9037H58.3001V36.7345C58.2055 36.7345 58.0636 36.7581 57.9454 36.7581C55.7226 36.9 53.9727 38.6972 53.8308 40.9437C53.8072 42.1733 54.2328 43.3557 55.0605 44.2306C55.9118 45.1292 57.0941 45.6021 58.3474 45.5785ZM55.628 75.1845V75.2555C55.628 76.7452 55.0368 78.164 53.9727 79.2045C52.9086 80.2686 51.5134 80.8598 50.0237 80.8598C46.9259 80.8598 44.4193 78.3532 44.4193 75.2555V75.1845H55.628ZM39.146 -5.71187C40.3757 -5.71187 41.3925 -4.69505 41.3925 -3.46541C41.3925 -2.23576 40.3757 -1.21894 39.146 -1.21894C37.9164 -1.21894 36.8996 -2.23576 36.8996 -3.46541C36.8996 -4.69505 37.9164 -5.71187 39.146 -5.71187ZM26.4476 -5.71187C27.6772 -5.71187 28.694 -4.69505 28.694 -3.46541C28.694 -2.23576 27.6772 -1.21894 26.4476 -1.21894C25.2179 -1.21894 24.2011 -2.23576 24.2011 -3.46541C24.2011 -4.69505 25.2179 -5.71187 26.4476 -5.71187ZM13.7255 -5.71187C14.9551 -5.71187 15.972 -4.69505 15.972 -3.46541C15.972 -2.23576 14.9551 -1.21894 13.7255 -1.21894C12.4959 -1.21894 11.479 -2.23576 11.479 -3.46541C11.479 -4.69505 12.4959 -5.71187 13.7255 -5.71187ZM98.5 6.96292V64.7798C98.5 67.1682 96.5609 69.1072 94.1726 69.1072H61.2087V62.8644C61.2087 60.0977 62.3674 57.4729 64.4247 55.4629C68.6102 51.4193 70.9276 45.7676 70.7621 39.9505C70.4783 29.1202 62.0836 20.4654 51.3006 19.8032C45.5071 19.4485 39.9737 21.4349 35.7409 25.4076C31.5317 29.3566 29.2143 34.7481 29.2143 40.518C29.2143 46.1696 31.4371 51.4666 35.4807 55.392C37.538 57.4256 38.744 60.1923 38.744 62.9827V69.1072H5.8274C3.43905 69.1072 1.5 67.1682 1.5 64.7798V6.96292H98.5ZM78.9439 40.518C78.9439 39.8795 78.4237 39.3593 77.7852 39.3593H75.0895C74.451 39.3593 73.9308 39.8795 73.9308 40.518C73.9308 41.1565 74.451 41.6767 75.0895 41.6767H77.7852C78.4237 41.6767 78.9439 41.1565 78.9439 40.518ZM76.7448 51.5848C76.9812 50.9936 76.6975 50.3315 76.1063 50.0714L73.647 49.0546C73.0558 48.8181 72.3701 49.1019 72.1336 49.6931C71.8971 50.2842 72.1809 50.9463 72.7721 51.2065L75.2314 52.2233C75.3732 52.2942 75.5151 52.3179 75.657 52.3179C76.1063 52.3179 76.5556 52.0341 76.7448 51.5848ZM76.0826 30.9646C76.6738 30.7045 76.9812 30.0424 76.7211 29.4512C76.461 28.86 75.7989 28.5526 75.2077 28.8127L72.7484 29.8296C72.1572 30.0897 71.8498 30.7518 72.1099 31.343C72.2991 31.8159 72.7248 32.076 73.1741 32.076C73.3396 32.076 73.4815 32.0524 73.6234 31.9814L76.0826 30.9646ZM70.4783 21.7186C70.9276 21.2694 70.9276 20.5363 70.4783 20.087C70.029 19.6377 69.296 19.6377 68.8467 20.087L66.9549 21.9788C66.5056 22.4281 66.5056 23.1611 66.9549 23.6104C67.1677 23.8232 67.4751 23.9415 67.7589 23.9415C68.0427 23.9415 68.3501 23.8469 68.5865 23.6104L70.4783 21.7186ZM70.4783 60.9963C70.9276 60.547 70.9276 59.814 70.4783 59.3647L68.5865 57.4729C68.1373 57.0236 67.4042 57.0236 66.9549 57.4729C66.5056 57.9222 66.5056 58.6553 66.9549 59.1046L68.8467 60.9963C69.0595 61.2091 69.3669 61.3274 69.6507 61.3274C69.9581 61.3274 70.2418 61.2091 70.4783 60.9963ZM61.7053 15.334C61.9417 14.7428 61.6816 14.057 61.0904 13.8205C60.4993 13.5841 59.8372 13.8442 59.577 14.4354L58.5366 16.8947C58.3001 17.4858 58.5602 18.1479 59.1514 18.4081C59.3169 18.479 59.4352 18.5027 59.6007 18.5027C60.05 18.5027 60.4993 18.2425 60.6648 17.7932L61.7053 15.334ZM51.1587 15.4522V12.7564C51.1587 12.118 50.6385 11.5977 50 11.5977C49.3615 11.5977 48.8413 12.118 48.8413 12.7564V15.4522C48.8413 16.0907 49.3615 16.6109 50 16.6109C50.6385 16.6109 51.1587 16.0907 51.1587 15.4522ZM40.8723 18.4081C41.4634 18.1479 41.7472 17.4858 41.4871 16.8947L40.4466 14.4354C40.1865 13.8442 39.5244 13.5604 38.9332 13.8205C38.342 14.0807 38.0583 14.7428 38.3184 15.334L39.3589 17.7932C39.548 18.2425 39.9737 18.5027 40.423 18.5027C40.5648 18.5027 40.7304 18.4554 40.8723 18.4081ZM33.0924 23.6104C33.5417 23.1611 33.5417 22.4281 33.0924 21.9788L31.2006 20.087C30.7513 19.6377 30.0183 19.6377 29.569 20.087C29.1197 20.5363 29.1197 21.2694 29.569 21.7186L31.4608 23.6104C31.6736 23.8232 31.981 23.9415 32.2647 23.9415C32.5485 23.9415 32.8559 23.8469 33.0924 23.6104ZM33.0924 59.1046C33.5417 58.6553 33.5417 57.9222 33.0924 57.4729C32.6431 57.0236 31.91 57.0236 31.4608 57.4729L29.569 59.3647C29.1197 59.814 29.1197 60.547 29.569 60.9963C29.7818 61.2091 30.0892 61.3274 30.373 61.3274C30.6568 61.3274 30.9642 61.2091 31.2006 60.9963L33.0924 59.1046ZM27.9373 31.343C28.1738 30.7518 27.8901 30.0897 27.2989 29.8296L24.8396 28.8127C24.2484 28.5763 23.5863 28.86 23.3262 29.4512C23.0897 30.0424 23.3735 30.7045 23.9646 30.9646L26.4239 31.9814C26.5658 32.0524 26.7077 32.076 26.8496 32.076C27.2989 32.076 27.7245 31.8396 27.9373 31.343ZM27.2752 51.2065C27.8664 50.9463 28.1738 50.2842 27.9137 49.6931C27.6536 49.1019 26.9915 48.7945 26.4003 49.0546L23.941 50.0714C23.3498 50.3315 23.0424 50.9936 23.3025 51.5848C23.4917 52.0578 23.9174 52.3179 24.3667 52.3179C24.5085 52.3179 24.6504 52.2942 24.8159 52.2233L27.2752 51.2065ZM26.0929 40.518C26.0929 39.8795 25.5726 39.3593 24.9342 39.3593H22.2384C21.6 39.3593 21.0797 39.8795 21.0797 40.518C21.0797 41.1565 21.6 41.6767 22.2384 41.6767H24.9342C25.549 41.6767 26.0929 41.1565 26.0929 40.518Z" fill="url(#paint1_linear_819_249)"/>
</g>
<defs>
<linearGradient id="paint0_linear_819_249" x1="0" y1="1.40002" x2="104.867" y2="7.76139" gradientUnits="userSpaceOnUse">
<stop stop-color="#4895FF"/>
<stop offset="0.317708" stop-color="#00FFCE"/>
<stop offset="1" stop-color="#FF00FF"/>
</linearGradient>
<linearGradient id="paint1_linear_819_249" x1="24.3235" y1="0.819965" x2="98.3679" y2="26.0553" gradientUnits="userSpaceOnUse">
<stop stop-color="#4895FF"/>
<stop offset="1" stop-color="#00FFCE"/>
</linearGradient>
</defs>
</svg>
