<svg width="100" height="89" viewBox="0 0 100 89" fill="none" xmlns="http://www.w3.org/2000/svg">
<path d="M78.4641 7.39989C76.3205 3.68715 72.359 1.40002 68.0719 1.40002H31.9281C27.641 1.40002 23.6795 3.68715 21.5359 7.39989L3.46428 38.6999C1.32058 42.4128 1.32058 46.9873 3.46428 50.7002L21.5359 82.0002C23.6795 85.7129 27.641 88 31.9281 88H68.0719C72.359 88 76.3205 85.7129 78.4641 82.0002L96.5357 50.7002C98.6794 46.9873 98.6794 42.4128 96.5357 38.6999L78.4641 7.39989Z" stroke="url(#paint0_linear_897_11206)" stroke-width="1.5"/>
<mask id="mask0_897_11206" style="mask-type:alpha" maskUnits="userSpaceOnUse" x="9" y="8" width="82" height="74">
<path d="M74.7213 14.3624C72.572 10.6708 68.6224 8.40002 64.3508 8.40002H35.6492C31.3776 8.40002 27.428 10.6708 25.2787 14.3624L11.015 38.8624C8.84238 42.5943 8.84238 47.2058 11.0151 50.9376L25.2788 75.4376C27.428 79.1292 31.3776 81.4 35.6492 81.4H64.3508C68.6224 81.4 72.572 79.1292 74.7213 75.4376L88.985 50.9376C91.1576 47.2058 91.1576 42.5943 88.9849 38.8624L74.7213 14.3624Z" fill="#D9D9D9"/>
</mask>
<g mask="url(#mask0_897_11206)">
<path d="M78.0183 35.6747V36.2394C78.0183 36.8243 77.5491 37.2882 76.9576 37.2882H24.3334C23.7419 37.2882 23.2728 36.8243 23.2728 36.2394V35.6747C23.2728 35.0898 23.7419 34.626 24.3334 34.626H76.9576C77.5491 34.626 78.0183 35.0898 78.0183 35.6747ZM74.5916 39.2646L60.6604 57.9403C58.4168 54.9554 54.7453 53.0193 50.6251 53.0193C46.5049 53.0193 42.8335 54.9554 40.5898 57.9403L26.6383 39.2646H74.5916ZM70.1654 32.6696H57.7437V32.347C57.9272 29.2612 60.6196 26.7805 63.924 26.7805H63.9444C67.3506 26.7805 70.145 29.4226 70.1654 32.6696ZM63.924 17.3418C66.1268 17.3418 67.9014 19.0158 67.9014 21.0931C67.9014 23.0091 66.3716 24.5822 64.4135 24.8242C64.2707 24.8242 64.1279 24.8041 63.9648 24.8041C63.8016 24.8041 63.6384 24.8041 63.4752 24.8242C61.4967 24.6024 59.9466 23.0091 59.9466 21.0931C59.9466 19.0158 61.7415 17.3418 63.924 17.3418ZM60.9868 64.8378V64.8983C60.946 70.3236 56.3159 74.7001 50.6251 74.7001C44.9344 74.7001 40.2839 70.3034 40.2635 64.8782V64.8378C40.2635 63.1639 40.7122 61.5908 41.4669 60.2193C41.4873 60.179 41.5281 60.1185 41.5485 60.0782C43.323 57.0529 46.7293 54.9958 50.6047 54.9958C54.521 54.9958 57.9272 57.0731 59.7018 60.1387C60.5177 61.5101 60.9868 63.1236 60.9868 64.8378ZM53.3583 63.1236C53.909 63.1236 54.3578 62.6799 54.3578 62.1353C54.3578 60.4412 53.1951 59.0093 51.6246 58.5857V57.7588C51.6246 57.2143 51.1758 56.7706 50.6251 56.7706C50.0744 56.7706 49.6257 57.2143 49.6257 57.7588V58.5857C48.0551 59.0093 46.8925 60.4412 46.8925 62.1353C46.8925 64.1723 48.565 65.8261 50.6251 65.8261C51.5634 65.8261 52.3589 66.6126 52.3589 67.5605C52.3589 68.4883 51.5634 69.2748 50.6251 69.2748C49.6869 69.2748 48.8914 68.5084 48.8914 67.5605C48.8914 67.016 48.4427 66.5723 47.8919 66.5723C47.3412 66.5723 46.8925 67.016 46.8925 67.5605C46.8925 69.2547 48.0551 70.6866 49.6257 71.1101V71.937C49.6257 72.4816 50.0744 72.9253 50.6251 72.9253C51.1758 72.9253 51.6246 72.4816 51.6246 71.937V71.1101C53.1951 70.6866 54.3578 69.2547 54.3578 67.5605C54.3578 65.5236 52.6852 63.8496 50.6251 63.8496C49.6869 63.8496 48.8914 63.0832 48.8914 62.1353C48.8914 61.2076 49.6869 60.421 50.6251 60.421C51.5634 60.421 52.3589 61.2076 52.3589 62.1353C52.3589 62.6799 52.8076 63.1236 53.3583 63.1236ZM55.704 32.6696H43.2822V32.347C43.4862 29.2612 46.1786 26.7805 49.4625 26.7805H49.4829C52.8892 26.7805 55.6836 29.4226 55.704 32.6696ZM49.4625 17.3418C51.645 17.3418 53.4399 19.0158 53.4399 21.0931C53.4399 23.0091 51.9101 24.5822 49.952 24.8242C49.8092 24.8242 49.6665 24.8041 49.5033 24.8041C49.3401 24.8041 49.1769 24.8041 49.0138 24.8242C47.0353 24.6024 45.4851 23.0091 45.4851 21.0931C45.4851 19.0158 47.28 17.3418 49.4625 17.3418ZM41.2425 32.6696H28.8004C28.8208 29.4226 31.5947 26.7805 35.001 26.7805H35.0214C38.4277 26.7805 41.2221 29.4226 41.2425 32.6696ZM35.001 17.3418C37.1835 17.3418 38.9784 19.0158 38.9784 21.0931C38.9784 23.0091 37.4487 24.5822 35.4906 24.8242C35.3478 24.8242 35.205 24.8041 35.0418 24.8041C34.8787 24.8041 34.7155 24.8041 34.5523 24.8242C32.5738 24.6024 31.0236 23.0091 31.0236 21.0931C31.0236 19.0158 32.8186 17.3418 35.001 17.3418ZM92.5001 -1.54993V60.1992C92.5001 62.2362 90.8072 63.9101 88.7471 63.9101H62.9449C62.8238 62.4655 62.4295 61.0562 61.7823 59.7555L77.0596 39.2646C78.6914 39.2041 79.9764 37.873 79.9968 36.2394V35.6747C79.9968 34.0209 78.6506 32.6696 76.9576 32.6696H72.2051C72.1847 29.5436 70.2878 26.8612 67.5546 25.5906C68.962 24.5419 69.8799 22.9083 69.8799 21.073C69.8799 17.9267 67.2079 15.3654 63.924 15.3654C60.64 15.3654 57.968 17.9267 57.968 21.073C57.968 22.9284 58.8859 24.5822 60.3341 25.6108C58.8043 26.3368 57.5601 27.4864 56.7442 28.9184C55.9283 27.4864 54.6433 26.3167 53.0932 25.5906C54.5006 24.5419 55.4184 22.9083 55.4184 21.073C55.4184 17.9267 52.7464 15.3654 49.4625 15.3654C46.1786 15.3654 43.5066 17.9267 43.5066 21.073C43.5066 22.9284 44.4244 24.5822 45.8726 25.6108C44.3633 26.3368 43.0986 27.4864 42.2828 28.9184C41.4669 27.4864 40.1819 26.3167 38.6521 25.5906C40.0595 24.5419 40.9774 22.9083 40.9774 21.073C40.9774 17.9267 38.3053 15.3654 35.0214 15.3654C31.7375 15.3654 29.0655 17.9267 29.0655 21.073C29.0655 22.9284 29.9834 24.5822 31.4316 25.6108C28.7188 26.9016 26.8422 29.5839 26.8218 32.6696H24.3538C22.6813 32.6696 21.3147 34.0007 21.3147 35.6747V36.2596C21.3147 37.8529 22.5793 39.1638 24.1906 39.2646L39.4884 59.7958C38.8561 61.0664 38.4481 62.4378 38.3461 63.9101H12.5032C10.4431 63.9101 8.75012 62.2362 8.75012 60.1992L8.75012 -1.54993H92.5001Z" fill="url(#paint1_linear_897_11206)"/>
</g>
<defs>
<linearGradient id="paint0_linear_897_11206" x1="0" y1="1.40002" x2="104.867" y2="7.76139" gradientUnits="userSpaceOnUse">
<stop stop-color="#4895FF"/>
<stop offset="0.317708" stop-color="#00FFCE"/>
<stop offset="1" stop-color="#FF00FF"/>
</linearGradient>
<linearGradient id="paint1_linear_897_11206" x1="28.456" y1="8.69259" x2="91.753" y2="31.2779" gradientUnits="userSpaceOnUse">
<stop stop-color="#4895FF"/>
<stop offset="1" stop-color="#00FFCE"/>
</linearGradient>
</defs>
</svg>
