<svg width="100" height="89" viewBox="0 0 100 89" fill="none" xmlns="http://www.w3.org/2000/svg">
<path d="M78.4641 7.39989C76.3205 3.68715 72.359 1.40002 68.0719 1.40002H31.9281C27.641 1.40002 23.6795 3.68715 21.5359 7.39989L3.46428 38.6999C1.32058 42.4128 1.32058 46.9873 3.46428 50.7002L21.5359 82.0002C23.6795 85.7129 27.641 88 31.9281 88H68.0719C72.359 88 76.3205 85.7129 78.4641 82.0002L96.5357 50.7002C98.6794 46.9873 98.6794 42.4128 96.5357 38.6999L78.4641 7.39989Z" stroke="url(#paint0_linear_897_11218)" stroke-width="1.5"/>
<mask id="mask0_897_11218" style="mask-type:alpha" maskUnits="userSpaceOnUse" x="9" y="8" width="82" height="74">
<path d="M74.7213 14.3624C72.572 10.6708 68.6224 8.40002 64.3508 8.40002H35.6492C31.3776 8.40002 27.428 10.6708 25.2787 14.3624L11.015 38.8624C8.84238 42.5943 8.84238 47.2058 11.0151 50.9376L25.2788 75.4376C27.428 79.1292 31.3776 81.4 35.6492 81.4H64.3508C68.6224 81.4 72.572 79.1292 74.7213 75.4376L88.985 50.9376C91.1576 47.2058 91.1576 42.5943 88.9849 38.8624L74.7213 14.3624Z" fill="#D9D9D9"/>
</mask>
<g mask="url(#mask0_897_11218)">
<path d="M76.2956 29.0046C77.3911 29.5692 77.8151 30.9278 77.2497 32.0217L76.6666 33.1332L72.7087 31.0513L73.2918 29.9574C73.8395 28.8458 75.2001 28.44 76.2956 29.0046ZM75.8715 34.6505L68.9451 47.8302L65.4643 54.4465L61.4887 52.3646L70.394 35.4268C70.447 35.3563 70.4824 35.2857 70.5177 35.1975L71.8959 32.5686L75.8715 34.6505ZM68.8568 51.747V78.45C68.8568 79.985 67.6023 81.22 66.0827 81.22H7.77408C6.23685 81.22 5 81.2173 5 79.7V20.6946H68.8215V34.6858L59.5804 52.2587C59.5627 52.294 59.5451 52.3116 59.5274 52.3469C59.4567 52.5057 59.4214 52.6821 59.4391 52.8409L59.227 59.7924C59.227 60.1277 59.4037 60.4276 59.6864 60.5864C59.8101 60.657 59.9338 60.6923 60.0752 60.6923C60.2518 60.6923 60.4462 60.6393 60.5876 60.5335L66.3124 56.3167C66.4184 56.2285 66.5068 56.1403 66.5598 56.0344L68.8568 51.747ZM63.9624 27.5375C63.9624 27.0612 63.5737 26.673 63.0966 26.673H26.4628C25.9858 26.673 25.597 27.0612 25.597 27.5375C25.597 28.0139 25.9858 28.4021 26.4628 28.4021H63.0966C63.5913 28.4021 63.9624 28.0139 63.9624 27.5375ZM63.9624 36.8479C63.9624 36.3715 63.5737 35.9834 63.0966 35.9834H22.7128C22.2358 35.9834 21.847 36.3715 21.847 36.8479C21.847 37.3243 22.2358 37.7124 22.7128 37.7124H63.0966C63.5913 37.7124 63.9624 37.3419 63.9624 36.8479ZM55.791 46.1583C55.791 45.6819 55.4022 45.2937 54.9252 45.2937H18.9805C18.5034 45.2937 18.1147 45.6819 18.1147 46.1583C18.1147 46.6347 18.5034 47.0228 18.9805 47.0228H54.9252C55.3846 47.0228 55.791 46.6347 55.791 46.1583ZM54.7041 55.451C54.7041 54.9746 54.3154 54.5865 53.8383 54.5865H23.9805C23.5034 54.5865 23.1147 54.9746 23.1147 55.451C23.1147 55.9274 23.5034 56.3155 23.9805 56.3155H53.8383C54.2977 56.3155 54.7041 55.9274 54.7041 55.451ZM57.3894 64.779C57.3894 64.3027 57.0007 63.9145 56.5236 63.9145H27.7305C27.2534 63.9145 26.8647 64.3027 26.8647 64.779C26.8647 65.2554 27.2534 65.6435 27.7305 65.6435H56.5236C57.0184 65.6435 57.3894 65.2554 57.3894 64.779ZM57.2304 74.0717C57.2304 73.5954 56.8417 73.2072 56.3646 73.2072H33.9805C33.5034 73.2072 33.1147 73.5954 33.1147 74.0717C33.1147 74.5481 33.5034 74.9363 33.9805 74.9363H56.3646C56.8417 74.9363 57.2304 74.5658 57.2304 74.0717ZM30.376 74.0541C30.376 74.0012 30.376 73.9482 30.3583 73.8777C30.3583 73.8247 30.323 73.7718 30.323 73.7189C30.2876 73.6659 30.27 73.613 30.2346 73.5601C30.1993 73.5248 30.164 73.4719 30.1286 73.4366C30.0933 73.4013 30.0403 73.3484 30.0049 73.3307C29.9519 73.2954 29.8989 73.2778 29.8459 73.2425C29.8106 73.2249 29.7399 73.2072 29.6869 73.2072C29.5632 73.1719 29.4572 73.1719 29.3512 73.2072C29.2982 73.2072 29.2451 73.2425 29.1921 73.2425C29.1391 73.2778 29.0861 73.2954 29.0331 73.3307C28.9978 73.366 28.9448 73.4013 28.9094 73.4366C28.8741 73.4719 28.8211 73.5248 28.8034 73.5601C28.7681 73.613 28.7504 73.6659 28.7151 73.7189C28.6974 73.7542 28.6797 73.8247 28.6797 73.8777C28.6621 73.9306 28.6621 73.9835 28.6621 74.0541C28.6621 74.107 28.6621 74.1776 28.6797 74.2305C28.6797 74.2835 28.7151 74.3364 28.7151 74.3893C28.7504 74.4423 28.7681 74.4952 28.8034 74.5481C28.8388 74.5834 28.8741 74.6363 28.9094 74.6716C28.9448 74.7069 28.9978 74.7598 29.0331 74.7775C29.0685 74.8128 29.1215 74.8304 29.1745 74.8657C29.2098 74.8833 29.2805 74.901 29.3335 74.901C29.3865 74.9186 29.4395 74.9186 29.5102 74.9186C29.7399 74.9186 29.9696 74.8128 30.1286 74.6716C30.2876 74.5128 30.376 74.2835 30.376 74.0541ZM22.8583 27.5375C22.8583 27.4846 22.8583 27.4317 22.8406 27.3611C22.8406 27.3082 22.8053 27.2552 22.8053 27.2023C22.77 27.1494 22.7523 27.0965 22.717 27.0435C22.6816 27.0082 22.6463 26.9553 22.6109 26.92C22.4519 26.7436 22.2222 26.673 21.9925 26.673C21.7628 26.673 21.5331 26.7789 21.3741 26.92C21.1974 27.0788 21.1267 27.3082 21.1267 27.5375C21.1267 27.7669 21.2327 27.9963 21.3741 28.1374C21.5331 28.3138 21.7628 28.3844 21.9925 28.3844C22.2222 28.3844 22.4519 28.2962 22.6109 28.1374C22.6463 28.1021 22.6993 28.0492 22.717 28.0139C22.7523 27.961 22.77 27.9081 22.8053 27.8551C22.823 27.8198 22.8406 27.7493 22.8406 27.6963C22.8583 27.6434 22.8583 27.5905 22.8583 27.5375ZM15.3583 46.1759C15.3583 46.123 15.3583 46.0701 15.3406 45.9995C15.3406 45.9466 15.3053 45.8936 15.3053 45.8407C15.27 45.7878 15.2523 45.7348 15.217 45.6819C15.1816 45.6466 15.1463 45.5937 15.1109 45.5584C15.0756 45.5231 15.0403 45.4878 14.9873 45.4525C14.9342 45.4173 14.8812 45.3996 14.8282 45.3643C14.7929 45.3467 14.7222 45.329 14.6692 45.329C14.3865 45.2761 14.0861 45.3643 13.8918 45.576C13.8564 45.6113 13.8034 45.6643 13.7857 45.6995C13.7504 45.7525 13.7327 45.8054 13.6974 45.8583C13.6797 45.8936 13.6621 45.9642 13.6621 46.0171C13.6444 46.0701 13.6444 46.123 13.6444 46.1936C13.6444 46.2465 13.6444 46.2994 13.6621 46.37C13.6621 46.4229 13.6974 46.4759 13.6974 46.5288C13.7327 46.5641 13.7504 46.6347 13.7857 46.6699C13.8211 46.7052 13.8564 46.7582 13.8918 46.7934C14.0508 46.9699 14.2805 47.0405 14.5102 47.0405C14.7399 47.0405 14.9696 46.9346 15.1286 46.7934C15.1639 46.7582 15.217 46.7052 15.2346 46.6699C15.27 46.6347 15.2876 46.5817 15.323 46.5288C15.3406 46.4935 15.3583 46.4229 15.3583 46.37V46.1759ZM20.3583 55.451C20.3583 55.3981 20.3583 55.3451 20.3406 55.2746C20.3406 55.2216 20.3053 55.1687 20.3053 55.1158C20.27 55.0629 20.2523 55.0099 20.217 54.957C20.1816 54.9217 20.1463 54.8688 20.1109 54.8335C19.9166 54.6218 19.6162 54.5335 19.3335 54.5865C19.2805 54.5865 19.2275 54.6218 19.1745 54.6218C19.1215 54.6571 19.0685 54.6747 19.0154 54.71C18.9801 54.7453 18.9271 54.7806 18.8918 54.8158C18.8564 54.8511 18.8034 54.9041 18.7857 54.9393C18.7504 54.9923 18.7327 55.0452 18.6974 55.0981C18.6797 55.1334 18.6621 55.204 18.6621 55.2569C18.6444 55.3099 18.6444 55.3628 18.6444 55.4334C18.6444 55.6627 18.7504 55.8921 18.8918 56.0509C18.9271 56.0862 18.9801 56.1391 19.0154 56.1567C19.0685 56.192 19.1215 56.2097 19.1745 56.245C19.2098 56.2626 19.2805 56.2802 19.3335 56.2802C19.3865 56.2979 19.4395 56.2979 19.5102 56.2979C19.5809 56.2979 19.6162 56.2979 19.6869 56.2802C19.7399 56.2802 19.7929 56.245 19.8459 56.245C19.8989 56.2097 19.9519 56.192 20.0049 56.1567C20.0403 56.1215 20.0933 56.0862 20.1286 56.0509C20.27 55.8921 20.3583 55.6627 20.3583 55.451ZM24.1083 64.7967C24.1083 64.7437 24.1083 64.6908 24.0906 64.6202C24.0906 64.5673 24.0553 64.5144 24.0553 64.4614C24.02 64.4085 24.0023 64.3556 23.967 64.3026C23.9316 64.2674 23.8963 64.2144 23.8609 64.1791C23.8256 64.1439 23.7726 64.0909 23.7373 64.0733C23.6842 64.038 23.6312 64.0204 23.5782 63.9851C23.5429 63.9674 23.4722 63.9498 23.4192 63.9498C23.3132 63.9145 23.1895 63.9145 23.0835 63.9498C23.0305 63.9498 22.9775 63.9851 22.9245 63.9851C22.8715 64.0204 22.8185 64.038 22.7654 64.0733C22.7301 64.1086 22.6771 64.1439 22.6418 64.1791C22.4651 64.3379 22.3944 64.5673 22.3944 64.7967C22.3944 64.8496 22.3944 64.9025 22.4121 64.9731C22.4121 65.026 22.4474 65.079 22.4474 65.1319C22.4827 65.1672 22.5004 65.2378 22.5357 65.273C22.5711 65.3083 22.6064 65.3613 22.6418 65.3965C22.6771 65.4318 22.7301 65.4848 22.7654 65.5024C22.8185 65.5377 22.8715 65.5553 22.9245 65.5906C22.9598 65.6083 23.0305 65.6259 23.0835 65.6259C23.1365 65.6435 23.1895 65.6435 23.2602 65.6435C23.4899 65.6435 23.7196 65.5377 23.8786 65.3789C23.9139 65.3436 23.967 65.2907 23.9846 65.2554C24.02 65.2201 24.0376 65.1672 24.073 65.1142C24.0906 65.079 24.1083 65.0084 24.1083 64.9555V64.7967ZM18.8609 37.4654C19.0376 37.3066 19.1083 37.0773 19.1083 36.8656C19.1083 36.6362 19.0023 36.4068 18.8609 36.248C18.6666 36.0363 18.3662 35.9481 18.0835 36.001C18.0305 36.001 17.9775 36.0363 17.9245 36.0363C17.8715 36.0716 17.8185 36.0892 17.7654 36.1245C17.7301 36.1598 17.6771 36.1951 17.6418 36.2304C17.6064 36.2657 17.5534 36.3186 17.5357 36.3539C17.5004 36.4068 17.4827 36.4598 17.4474 36.5127C17.4297 36.548 17.4121 36.6185 17.4121 36.6715C17.3944 36.7244 17.3944 36.7773 17.3944 36.8479C17.3944 36.9008 17.3944 36.9538 17.4121 37.0243C17.4121 37.0773 17.4474 37.1302 17.4474 37.1831C17.4827 37.2361 17.5004 37.3066 17.5357 37.3419C17.5711 37.3772 17.6064 37.4301 17.6418 37.4654C17.8008 37.6419 18.0305 37.7124 18.2602 37.7124C18.4722 37.7124 18.7019 37.6242 18.8609 37.4654ZM64.2098 55.7345L61.0293 58.081L61.153 54.1465L64.2098 55.7345ZM62.2547 12.3316C63.0144 12.3316 63.6329 12.9491 63.6329 13.7078C63.6329 14.4664 63.0144 15.0839 62.2547 15.0839C61.4949 15.0839 60.8765 14.4664 60.8765 13.7078C60.8765 12.9491 61.4949 12.3316 62.2547 12.3316ZM53.8794 12.3316C54.6392 12.3316 55.2576 12.9491 55.2576 13.7078C55.2576 14.4664 54.6392 15.0839 53.8794 15.0839C53.1196 15.0839 52.5012 14.4841 52.5012 13.7078C52.5012 12.9491 53.102 12.3316 53.8794 12.3316ZM45.4865 12.3316C46.2463 12.3316 46.8647 12.9491 46.8647 13.7078C46.8647 14.4664 46.2463 15.0839 45.4865 15.0839C44.7267 15.0839 44.1083 14.4664 44.1083 13.7078C44.1083 12.9491 44.7267 12.3316 45.4865 12.3316ZM68.8391 11.1847V18.9655H5.01767V11.1847C5.01767 9.68505 6.27219 8.45001 7.79175 8.45001H66.0827C67.6023 8.45001 68.8391 9.66741 68.8391 11.1847ZM65.3645 13.7078C65.3645 11.9963 63.9686 10.6025 62.2547 10.6025C60.5407 10.6025 59.1449 11.9963 59.1449 13.7078C59.1449 15.4192 60.5407 16.813 62.2547 16.813C63.9686 16.813 65.3645 15.4368 65.3645 13.7078ZM56.9892 13.7078C56.9892 11.9963 55.5933 10.6025 53.8794 10.6025C52.1655 10.6025 50.7696 11.9963 50.7696 13.7078C50.7696 15.4192 52.1655 16.813 53.8794 16.813C55.5933 16.813 56.9892 15.4368 56.9892 13.7078ZM48.5963 13.7078C48.5963 11.9963 47.2004 10.6025 45.4865 10.6025C43.7726 10.6025 42.3767 11.9963 42.3767 13.7078C42.3767 15.4192 43.7726 16.813 45.4865 16.813C47.2004 16.813 48.5963 15.4368 48.5963 13.7078Z" fill="url(#paint1_linear_897_11218)"/>
</g>
<defs>
<linearGradient id="paint0_linear_897_11218" x1="0" y1="1.40002" x2="104.867" y2="7.76139" gradientUnits="userSpaceOnUse">
<stop stop-color="#4895FF"/>
<stop offset="0.317708" stop-color="#00FFCE"/>
<stop offset="1" stop-color="#FF00FF"/>
</linearGradient>
<linearGradient id="paint1_linear_897_11218" x1="22.0588" y1="18.2251" x2="77.9724" y2="36.3219" gradientUnits="userSpaceOnUse">
<stop stop-color="#4895FF"/>
<stop offset="1" stop-color="#00FFCE"/>
</linearGradient>
</defs>
</svg>
