<svg width="20" height="20" viewBox="0 0 20 20" fill="none" xmlns="http://www.w3.org/2000/svg">
<g clip-path="url(#clip0_823_538)">
<mask id="path-1-inside-1_823_538" fill="white">
<path fill-rule="evenodd" clip-rule="evenodd" d="M4.35211 5.17484C3.69445 5.17484 3.09633 5.54566 2.8282 6.11938L0 12.0489V1.23352C0 0.574961 0.555586 0.0390625 1.23867 0.0390625H5.97715C6.38453 0.0390625 6.76586 0.232031 6.9968 0.555469L8.30031 2.37812C8.30309 2.38012 8.31039 2.38285 8.32109 2.38285H15.6041C16.2869 2.38285 16.8425 2.91871 16.8425 3.5773V5.17484H4.35211ZM18.3304 6.3064C18.9261 6.3064 19.4632 6.59937 19.7672 7.08948C20.0504 7.54741 20.0769 8.10788 19.8375 8.58882L16.8051 14.6667C16.673 14.9314 16.4698 15.154 16.2182 15.3097C15.9666 15.4653 15.6767 15.5477 15.3809 15.5478H1.26876C0.669543 15.5478 0.166418 15.1454 0.0339966 14.6067L3.54236 7.25093C3.81075 6.67706 4.40872 6.3064 5.06622 6.3064H18.3304Z"/>
</mask>
<path d="M2.8282 6.11938L3.73082 6.54989L3.73415 6.54277L2.8282 6.11938ZM0 12.0489H-1L0.902589 12.4794L0 12.0489ZM6.9968 0.555469L6.18296 1.13656L6.1834 1.13719L6.9968 0.555469ZM8.30031 2.37812L7.48692 2.95984L7.58289 3.09403L7.71688 3.19029L8.30031 2.37812ZM16.8425 5.17484V6.17484H17.8425V5.17484H16.8425ZM19.7672 7.08948L20.6177 6.5635L20.617 6.5624L19.7672 7.08948ZM19.8375 8.58882L20.7323 9.03526L20.7327 9.03446L19.8375 8.58882ZM16.8051 14.6667L17.6999 15.1133L17.6999 15.1132L16.8051 14.6667ZM15.3809 15.5478V16.5478H15.381L15.3809 15.5478ZM0.0339966 14.6067L-0.868598 14.1763L-1.02236 14.4986L-0.937087 14.8455L0.0339966 14.6067ZM3.54236 7.25093L4.44498 7.68143L4.44818 7.67458L3.54236 7.25093ZM3.73415 6.54277C3.82996 6.33775 4.06377 6.17484 4.35211 6.17484V4.17484C3.32513 4.17484 2.36269 4.75357 1.92226 5.69598L3.73415 6.54277ZM0.902589 12.4794L3.73079 6.54988L1.92561 5.68887L-0.902589 11.6184L0.902589 12.4794ZM-1 1.23352V12.0489H1V1.23352H-1ZM1.23867 -0.960938C0.0377943 -0.960938 -1 -0.0111972 -1 1.23352H1C1 1.16112 1.07338 1.03906 1.23867 1.03906V-0.960938ZM5.97715 -0.960938H1.23867V1.03906H5.97715V-0.960938ZM7.81064 -0.0256207C7.38624 -0.620011 6.6975 -0.960938 5.97715 -0.960938V1.03906C6.07156 1.03906 6.14548 1.08407 6.18296 1.13656L7.81064 -0.0256207ZM9.1137 1.79641L7.81019 -0.0262478L6.1834 1.13719L7.48692 2.95984L9.1137 1.79641ZM8.32109 1.38285C8.39997 1.38285 8.48189 1.39282 8.56449 1.41476C8.60567 1.4257 8.65135 1.44077 8.69978 1.46169C8.744 1.48079 8.81045 1.51331 8.88374 1.56596L7.71688 3.19029C7.94385 3.35333 8.17942 3.38285 8.32109 3.38285V1.38285ZM15.6041 1.38285H8.32109V3.38285H15.6041V1.38285ZM17.8425 3.5773C17.8425 2.33267 16.8048 1.38285 15.6041 1.38285V3.38285C15.769 3.38285 15.8425 3.50475 15.8425 3.5773H17.8425ZM17.8425 5.17484V3.5773H15.8425V5.17484H17.8425ZM4.35211 6.17484H16.8425V4.17484H4.35211V6.17484ZM20.617 6.5624C20.1237 5.76703 19.2587 5.3064 18.3304 5.3064V7.3064C18.5935 7.3064 18.8027 7.4317 18.9174 7.61656L20.617 6.5624ZM20.7327 9.03446C21.127 8.24238 21.0821 7.31447 20.6177 6.5635L18.9167 7.61547C19.0187 7.78036 19.0268 7.97338 18.9423 8.14318L20.7327 9.03446ZM17.6999 15.1132L20.7323 9.03526L18.9427 8.14237L15.9103 14.2203L17.6999 15.1132ZM16.7443 16.1601C17.1539 15.9067 17.4848 15.5442 17.6999 15.1133L15.9103 14.2202C15.8612 14.3186 15.7856 14.4014 15.6921 14.4592L16.7443 16.1601ZM15.381 16.5478C15.8626 16.5477 16.3347 16.4135 16.7443 16.1601L15.6921 14.4592C15.5986 14.5171 15.4908 14.5478 15.3808 14.5478L15.381 16.5478ZM1.26876 16.5478H15.3809V14.5478H1.26876V16.5478ZM-0.937087 14.8455C-0.692028 15.8423 0.22079 16.5478 1.26876 16.5478V14.5478C1.1183 14.5478 1.02487 14.4485 1.00508 14.368L-0.937087 14.8455ZM2.63976 6.82044L-0.868598 14.1763L0.936591 15.0372L4.44495 7.68142L2.63976 6.82044ZM5.06622 5.3064C4.0393 5.3064 3.07722 5.88504 2.63653 6.82727L4.44818 7.67458C4.54429 7.46908 4.77815 7.3064 5.06622 7.3064V5.3064ZM18.3304 5.3064H5.06622V7.3064H18.3304V5.3064Z" fill="url(#paint0_linear_823_538)" mask="url(#path-1-inside-1_823_538)"/>
</g>
<defs>
<linearGradient id="paint0_linear_823_538" x1="0" y1="0.0390625" x2="20.9545" y2="1.45864" gradientUnits="userSpaceOnUse">
<stop stop-color="#4895FF"/>
<stop offset="0.317708" stop-color="#00FFCE"/>
<stop offset="1" stop-color="#FF00FF"/>
</linearGradient>
<clipPath id="clip0_823_538">
<rect width="20" height="20" fill="white"/>
</clipPath>
</defs>
</svg>
