<svg width="22" height="22" viewBox="0 0 22 22" fill="none" xmlns="http://www.w3.org/2000/svg">
<g opacity="0.7">
<path d="M2.75 7.94444V7.44444C2.47386 7.44444 2.25 7.6683 2.25 7.94444H2.75ZM2.75 20.1667H2.25C2.25 20.4428 2.47386 20.6667 2.75 20.6667V20.1667ZM5.80555 7.94444H6.30555C6.30555 7.6683 6.08169 7.44444 5.80555 7.44444V7.94444ZM5.80555 20.1667V20.6667C6.08169 20.6667 6.30555 20.4428 6.30555 20.1667H5.80555ZM11.9166 20.1666V20.6666C12.1927 20.6666 12.4166 20.4428 12.4166 20.1666H11.9166ZM8.86105 20.1666H8.36105C8.36105 20.4428 8.58491 20.6666 8.86105 20.6666V20.1666ZM8.86105 7.94441V7.44441C8.58491 7.44441 8.36105 7.66827 8.36105 7.94441H8.86105ZM11.9166 7.94441H12.4166C12.4166 7.66827 12.1927 7.44441 11.9166 7.44441V7.94441ZM11.9166 9.47219H11.4166C11.4166 9.67442 11.5384 9.85674 11.7253 9.93413C11.9121 10.0115 12.1272 9.96874 12.2702 9.82574L11.9166 9.47219ZM12.2729 9.11591L12.6264 9.46946L12.2729 9.11591ZM19.1332 10.1554L19.5804 9.9318L19.5804 9.9318L19.1332 10.1554ZM19.5555 11.9442H20.0555V11.9442L19.5555 11.9442ZM19.5555 20.1666V20.6666C19.8316 20.6666 20.0555 20.4428 20.0555 20.1666H19.5555ZM16.4999 20.1666H15.9999C15.9999 20.4428 16.2238 20.6666 16.4999 20.6666V20.1666ZM4.27778 5.38888C5.39765 5.38888 6.30555 4.48105 6.30555 3.3611H5.30555C5.30555 3.92874 4.84538 4.38888 4.27778 4.38888V5.38888ZM2.25 3.3611C2.25 4.48105 3.1579 5.38888 4.27778 5.38888V4.38888C3.71017 4.38888 3.25 3.92874 3.25 3.3611H2.25ZM4.27778 1.33333C3.1579 1.33333 2.25 2.24116 2.25 3.3611H3.25C3.25 2.79347 3.71017 2.33333 4.27778 2.33333V1.33333ZM6.30555 3.3611C6.30555 2.24116 5.39765 1.33333 4.27778 1.33333V2.33333C4.84538 2.33333 5.30555 2.79347 5.30555 3.3611H6.30555ZM2.25 7.94444V20.1667H3.25V7.94444H2.25ZM5.80555 7.44444H2.75V8.44444H5.80555V7.44444ZM6.30555 20.1667V7.94444H5.30555V20.1667H6.30555ZM2.75 20.6667H5.80555V19.6667H2.75V20.6667ZM12.4166 13.2916C12.4166 12.3021 13.2188 11.5 14.2083 11.5V10.5C12.6665 10.5 11.4166 11.7498 11.4166 13.2916H12.4166ZM12.4166 20.1666V13.2916H11.4166V20.1666H12.4166ZM8.86105 20.6666H11.9166V19.6666H8.86105V20.6666ZM8.36105 7.94441V20.1666H9.36105V7.94441H8.36105ZM11.9166 7.44441H8.86105V8.44441H11.9166V7.44441ZM12.4166 9.47219V7.94441H11.4166V9.47219H12.4166ZM11.9193 8.76236L11.5631 9.11863L12.2702 9.82574L12.6264 9.46946L11.9193 8.76236ZM19.5804 9.9318C18.8154 8.40189 17.3831 7.61284 15.9211 7.45233C14.4706 7.29307 12.9364 7.74533 11.9193 8.76236L12.6264 9.46946C13.399 8.69691 14.6181 8.31528 15.8119 8.44635C16.9943 8.57616 18.0973 9.20166 18.686 10.379L19.5804 9.9318ZM20.0555 11.9442C20.0555 11.2456 19.8928 10.5566 19.5804 9.9318L18.686 10.379C18.929 10.865 19.0555 11.4009 19.0555 11.9442L20.0555 11.9442ZM20.0555 20.1666V11.9442H19.0555V20.1666H20.0555ZM16.4999 20.6666H19.5555V19.6666H16.4999V20.6666ZM15.9999 13.2916V20.1666H16.9999V13.2916H15.9999ZM14.2083 11.5C15.1978 11.5 15.9999 12.3021 15.9999 13.2916H16.9999C16.9999 11.7498 15.7501 10.5 14.2083 10.5V11.5Z" fill="white"/>
</g>
</svg>
