<svg width="24" height="24" viewBox="0 0 24 24" fill="none" xmlns="http://www.w3.org/2000/svg">
<path d="M3.11156 8.68552L3.4001 8.27662L3.39219 8.27126L3.11156 8.68552ZM5.62827 10.435L5.34327 10.8462L5.34328 10.8462L5.62827 10.435ZM1.67523 7.26755L2.07589 6.96781L2.07586 6.96778L1.67523 7.26755ZM1.50942 3.99572L1.11836 3.68357L1.11831 3.68363L1.50942 3.99572ZM22.4167 3.9344L22.0647 4.29005L22.0648 4.29011L22.4167 3.9344ZM22.3983 7.17527L21.9847 6.89356L21.9846 6.89379L22.3983 7.17527ZM20.9007 8.68526L21.186 9.09629L21.1872 9.09549L20.9007 8.68526ZM15.1552 12.6752L14.8695 12.2645L14.8679 12.2656L15.1552 12.6752ZM14.6334 13.0498L14.9267 13.4552L14.9269 13.4551L14.6334 13.0498ZM13.9705 13.5164L14.25 13.9314L14.2502 13.9313L13.9705 13.5164ZM13.3322 13.9153L13.5862 14.3464L13.5867 14.3461L13.3322 13.9153ZM12.6263 14.2464L12.4687 13.7715L12.4677 13.7718L12.6263 14.2464ZM11.3738 14.2464L11.5324 13.7719L11.5313 13.7715L11.3738 14.2464ZM10.6678 13.9153L10.4137 14.3463L10.4138 14.3464L10.6678 13.9153ZM10.0293 13.5164L9.74951 13.9312L9.74972 13.9314L10.0293 13.5164ZM9.36644 13.0498L9.65976 12.6444L9.65966 12.6443L9.36644 13.0498ZM8.8448 12.6752L8.557 13.0845L8.55745 13.0849L8.8448 12.6752ZM21.7721 9.99878L22.0526 10.4132L22.0545 10.4118L21.7721 9.99878ZM15.6585 14.2343L15.3651 13.829L15.3618 13.8315L15.6585 14.2343ZM23 8.93075H23.5004V7.62293L22.6274 8.59676L23 8.93075ZM22.423 20.0656L22.0692 19.7118L22.0692 19.7119L22.423 20.0656ZM1.57698 20.0656L1.93087 19.7119L1.93077 19.7118L1.57698 20.0656ZM1 8.93075L1.37227 8.59641L0.499635 7.62479V8.93075H1ZM2.24008 9.99878L2.52132 9.58491L2.51745 9.58234L2.24008 9.99878ZM8.34162 14.2343L8.63838 13.8315L8.63749 13.8308L8.34162 14.2343ZM9.47712 15.0384L9.75332 14.6212L9.75325 14.6211L9.47712 15.0384ZM10.6373 15.6276L10.8293 15.1656L10.8291 15.1655L10.6373 15.6276ZM13.3628 15.6276L13.171 15.1654L13.1707 15.1656L13.3628 15.6276ZM14.5229 15.0384L14.2469 14.621L14.2468 14.6211L14.5229 15.0384ZM2.82307 9.09434C3.10355 9.29226 3.9446 9.87701 5.34327 10.8462L5.91327 10.0237C4.5129 9.05329 3.67617 8.47153 3.40005 8.27669L2.82307 9.09434ZM1.27457 7.56728C1.75074 8.20378 2.26844 8.71873 2.83093 9.09978L3.39219 8.27126C2.93996 7.9649 2.49979 7.53445 2.07589 6.96781L1.27457 7.56728ZM0.499635 5.59166C0.499635 6.25476 0.788223 6.91728 1.2746 7.56731L2.07586 6.96778C1.66207 6.41476 1.50037 5.95979 1.50037 5.59166H0.499635ZM1.11831 3.68363C0.696208 4.21262 0.499635 4.86033 0.499635 5.59166H1.50037C1.50037 5.04632 1.64341 4.63004 1.90053 4.3078L1.11831 3.68363ZM2.9642 2.85706C2.20878 2.85706 1.56859 3.11951 1.11836 3.68357L1.90048 4.30786C2.12957 4.02086 2.45929 3.85779 2.9642 3.85779V2.85706ZM21.0356 2.85706H2.9642V3.85779H21.0356V2.85706ZM22.7686 3.57874C22.2891 3.10417 21.7033 2.85706 21.0356 2.85706V3.85779C21.4316 3.85779 21.7667 3.99518 22.0647 4.29005L22.7686 3.57874ZM23.5003 5.32175C23.5003 4.64596 23.251 4.05596 22.7686 3.57868L22.0648 4.29011C22.3599 4.5821 22.4996 4.91703 22.4996 5.32175H23.5003ZM22.8118 7.45697C23.2637 6.79362 23.5003 6.07885 23.5003 5.32175H22.4996C22.4996 5.85767 22.3354 6.3788 21.9847 6.89356L22.8118 7.45697ZM21.1872 9.09549C21.8334 8.64418 22.376 8.09742 22.8119 7.45675L21.9846 6.89379C21.6185 7.43175 21.1628 7.89188 20.6142 8.27503L21.1872 9.09549ZM15.441 13.086C16.1936 12.5625 18.1087 11.2326 21.186 9.09629L20.6154 8.27423C17.5382 10.4104 15.6226 11.7406 14.8695 12.2645L15.441 13.086ZM14.9269 13.4551C15.1927 13.2626 15.3641 13.1399 15.4426 13.0849L14.8679 12.2656C14.7827 12.3254 14.6059 12.4519 14.34 12.6445L14.9269 13.4551ZM14.2502 13.9313C14.4326 13.8084 14.6584 13.6493 14.9267 13.4552L14.3402 12.6443C14.0763 12.8352 13.8604 12.9872 13.6908 13.1015L14.2502 13.9313ZM13.5867 14.3461C13.8418 14.1954 14.0635 14.0571 14.25 13.9314L13.691 13.1014C13.5255 13.2128 13.3216 13.3404 13.0776 13.4845L13.5867 14.3461ZM12.7838 14.7213C13.0458 14.6344 13.3139 14.5069 13.5862 14.3464L13.0781 13.4842C12.8516 13.6178 12.6485 13.7119 12.4687 13.7715L12.7838 14.7213ZM12.0124 14.8572C12.2651 14.8572 12.5239 14.8082 12.7848 14.721L12.4677 13.7718C12.2866 13.8323 12.136 13.8565 12.0124 13.8565V14.8572ZM11.9876 14.8572H12.0124V13.8565H11.9876V14.8572ZM11.2152 14.721C11.4762 14.8082 11.7349 14.8572 11.9876 14.8572V13.8565C11.8639 13.8565 11.7134 13.8324 11.5324 13.7719L11.2152 14.721ZM10.4138 14.3464C10.6864 14.507 10.9542 14.6344 11.2163 14.7214L11.5313 13.7715C11.3514 13.7118 11.1486 13.6179 10.9219 13.4843L10.4138 14.3464ZM9.74972 13.9314C9.93628 14.0571 10.158 14.1955 10.4137 14.3463L10.922 13.4843C10.6782 13.3405 10.4744 13.2129 10.3089 13.1015L9.74972 13.9314ZM9.07312 13.4551C9.34153 13.6494 9.56739 13.8084 9.74951 13.9312L10.3091 13.1016C10.1395 12.9872 9.92334 12.8351 9.65976 12.6444L9.07312 13.4551ZM8.55745 13.0849C8.6358 13.1398 8.80667 13.2624 9.07322 13.4552L9.65966 12.6443C9.3943 12.4524 9.21746 12.3255 9.13216 12.2656L8.55745 13.0849ZM5.34328 10.8462C6.74256 11.8159 7.81362 12.5618 8.557 13.0845L9.13261 12.2659C8.38639 11.7412 7.31311 10.9937 5.91326 10.0237L5.34328 10.8462ZM21.4917 9.58441C18.8062 11.402 16.7628 12.8175 15.3652 13.829L15.9519 14.6397C17.3366 13.6376 19.3696 12.2291 22.0526 10.4132L21.4917 9.58441ZM22.6274 8.59676C22.3039 8.9577 21.9255 9.28781 21.4897 9.58572L22.0545 10.4118C22.5523 10.0716 22.9921 9.68916 23.3726 9.26474L22.6274 8.59676ZM23.5004 18.6782V8.93075H22.4996V18.6782H23.5004ZM22.7768 20.4194C23.2548 19.9415 23.5004 19.3525 23.5004 18.6782H22.4996C22.4996 19.085 22.3609 19.4201 22.0692 19.7118L22.7768 20.4194ZM21.0358 21.1431C21.7097 21.1431 22.2991 20.8973 22.7769 20.4194L22.0692 19.7119C21.7776 20.0035 21.4421 20.1424 21.0358 20.1424V21.1431ZM2.96433 21.1431H21.0358V20.1424H2.96433V21.1431ZM1.22308 20.4194C1.70085 20.8973 2.29038 21.1431 2.96433 21.1431V20.1424C2.55786 20.1424 2.22237 20.0035 1.93087 19.7119L1.22308 20.4194ZM0.499635 18.6782C0.499635 19.3525 0.745329 19.9416 1.22318 20.4194L1.93077 19.7118C1.63918 19.4202 1.50037 19.085 1.50037 18.6782H0.499635ZM0.499635 8.93075V18.6782H1.50037V8.93075H0.499635ZM2.51745 9.58234C2.08452 9.29398 1.70335 8.96505 1.37227 8.59641L0.627734 9.26509C1.0169 9.6984 1.46236 10.082 1.9627 10.4152L2.51745 9.58234ZM8.63749 13.8308C7.52437 13.0146 5.48364 11.598 2.52131 9.58493L1.95885 10.4126C4.92202 12.4262 6.94892 13.8336 8.04575 14.6379L8.63749 13.8308ZM9.75325 14.6211C9.47292 14.4356 9.10202 14.173 8.63838 13.8315L8.04486 14.6372C8.51414 14.9829 8.90039 15.2567 9.201 15.4557L9.75325 14.6211ZM10.8291 15.1655C10.3627 14.9718 10.0076 14.7895 9.75332 14.6212L9.20092 15.4556C9.52775 15.672 9.94621 15.8825 10.4454 16.0897L10.8291 15.1655ZM11.9877 15.428C11.6504 15.428 11.2659 15.347 10.8293 15.1656L10.4452 16.0896C10.9743 16.3096 11.4902 16.4287 11.9877 16.4287V15.428ZM12.0125 15.428H11.9877V16.4287H12.0125V15.428ZM13.1707 15.1656C12.7341 15.3471 12.3499 15.428 12.0125 15.428V16.4287C12.5101 16.4287 13.0258 16.3096 13.5549 16.0896L13.1707 15.1656ZM14.2468 14.6211C13.9923 14.7895 13.6374 14.9719 13.171 15.1654L13.5546 16.0897C14.0541 15.8824 14.4722 15.672 14.7991 15.4557L14.2468 14.6211ZM15.3618 13.8315C14.898 14.1731 14.5273 14.4356 14.2469 14.621L14.7989 15.4557C15.0998 15.2568 15.486 14.9828 15.9553 14.6372L15.3618 13.8315Z" fill="url(#paint0_linear_828_5072)"/>
<defs>
<linearGradient id="paint0_linear_828_5072" x1="1" y1="3.35742" x2="24.0527" y2="4.89872" gradientUnits="userSpaceOnUse">
<stop stop-color="#4895FF"/>
<stop offset="0.317708" stop-color="#00FFCE"/>
<stop offset="1" stop-color="#FF00FF"/>
</linearGradient>
</defs>
</svg>
