<svg width="22" height="22" viewBox="0 0 22 22" fill="none" xmlns="http://www.w3.org/2000/svg">
<g opacity="0.7">
<path d="M1.79919 10.8845L6.22669 12.3881L16.7393 5.96131C16.8919 5.8685 17.0479 6.07544 16.9166 6.19644L8.95813 13.5218L8.66251 17.6227C8.65768 17.6914 8.67385 17.7599 8.70887 17.8192C8.74389 17.8785 8.79611 17.9258 8.8586 17.9547C8.92109 17.9836 8.9909 17.9929 9.05878 17.9812C9.12665 17.9696 9.18937 17.9376 9.23863 17.8894L11.6889 15.4798L16.1686 18.8705C16.6513 19.2363 17.3504 18.9784 17.4804 18.3872L20.5996 4.22469C20.7776 3.41688 19.9856 2.73488 19.2136 3.0305L1.77719 9.7075C1.22994 9.91719 1.24507 10.6961 1.79919 10.8845Z" stroke="white"/>
</g>
</svg>
