<svg width="22" height="22" viewBox="0 0 22 22" fill="none" xmlns="http://www.w3.org/2000/svg">
<g opacity="0.7" clip-path="url(#clip0_931_12166)">
<path d="M21.8029 4.01302C21.7252 3.96037 21.6329 3.93341 21.5391 3.93593C21.4453 3.93845 21.3546 3.97033 21.2798 4.02707C21.1246 4.14459 20.8727 4.24565 20.5864 4.32854C21.3703 3.41326 21.3866 2.80139 21.3774 2.65736C21.3721 2.57716 21.3455 2.49982 21.3003 2.43339C21.2551 2.36696 21.1929 2.31386 21.1202 2.27962C21.0474 2.24556 20.9668 2.2316 20.8868 2.23919C20.8068 2.24679 20.7303 2.27566 20.6653 2.3228C19.7246 3.00635 18.788 3.15524 18.225 3.17186C17.3512 2.34076 16.2182 1.88521 15.0136 1.88521C12.4238 1.88521 10.3168 4.02007 10.3168 6.64404C10.3168 6.85648 10.3308 7.06849 10.3584 7.27873C5.93726 7.20349 2.3489 2.9715 2.31186 2.92699C2.21802 2.81454 2.07553 2.75335 1.92819 2.7674C1.85621 2.77368 1.7868 2.79723 1.72586 2.83605C1.66491 2.87486 1.61422 2.92779 1.57808 2.99036C0.331773 5.15264 1.09314 7.06058 1.85759 8.20363C1.77866 8.15671 1.71399 8.11353 1.66973 8.08087C1.60345 8.03158 1.52486 8.00151 1.44259 7.99397C1.36033 7.98642 1.27758 8.0017 1.20344 8.03812C1.12928 8.07462 1.06662 8.13087 1.02237 8.20069C0.978123 8.2705 0.95399 8.35117 0.952629 8.43382C0.918855 10.5073 1.8878 11.7205 2.82925 12.408C2.72585 12.4221 2.63063 12.4719 2.56 12.5488C2.50696 12.6063 2.46989 12.6767 2.45247 12.753C2.43505 12.8293 2.43789 12.9088 2.4607 12.9837C3.11357 15.1207 4.69684 15.8777 5.74236 16.1456C3.62743 17.7414 0.562172 17.2205 0.528184 17.2141C0.324941 17.1784 0.121527 17.2856 0.0379961 17.4755C-0.00254615 17.5676 -0.010924 17.6707 0.0142092 17.7682C0.0393424 17.8657 0.0965267 17.9519 0.17657 18.013C2.43088 19.7335 5.127 20.1147 7.07434 20.1147C8.54697 20.1147 9.59115 19.8966 9.69157 19.8749C19.515 17.5469 19.8264 8.5714 19.8062 7.04184C21.649 5.32615 21.9388 4.66761 21.984 4.50381C22.0088 4.41334 22.0047 4.31738 21.9722 4.22937C21.9397 4.14136 21.8805 4.06571 21.8029 4.01302ZM19.0473 6.52059C18.9979 6.56614 18.9593 6.62222 18.9344 6.68467C18.9095 6.74713 18.899 6.81437 18.9036 6.88144C18.9051 6.90555 19.0555 9.33835 17.9714 12.0491C16.523 15.671 13.6675 18.01 9.49336 18.9991C9.44863 19.0086 5.58728 19.8083 2.19761 18.1961C3.64673 18.1353 5.65354 17.7272 7.06562 16.1419C7.18357 16.0097 7.21163 15.8054 7.13905 15.6438C7.06648 15.4827 6.90535 15.3641 6.72866 15.3641H6.72561C6.60702 15.3641 4.56269 15.3487 3.58318 13.3744C3.9793 13.3915 4.45286 13.3681 4.83451 13.1923C5.01034 13.1112 5.11424 12.9302 5.09254 12.738C5.07084 12.5457 4.92836 12.3908 4.73891 12.3509C4.62908 12.3276 2.2618 11.7993 1.89682 9.22736C2.26051 9.37887 2.71388 9.49622 3.16483 9.42867C3.24962 9.41593 3.32898 9.37915 3.39351 9.3227C3.45804 9.26625 3.50504 9.19248 3.52895 9.11015C3.55284 9.02774 3.55265 8.94023 3.52841 8.85793C3.50416 8.77563 3.45688 8.70199 3.39214 8.6457C3.28974 8.55675 1.05777 6.57147 2.07983 4.00623C3.28974 5.26659 6.74022 8.40486 10.9242 8.16501C10.9902 8.16115 11.0545 8.14279 11.1126 8.11122C11.1707 8.07966 11.2211 8.03567 11.2602 7.98239C11.2994 7.92915 11.3262 7.86793 11.3389 7.80309C11.3516 7.73826 11.3498 7.67142 11.3337 7.60736C11.2547 7.29236 11.2147 6.96884 11.2147 6.64408C11.2147 4.51515 12.9187 2.78321 15.0135 2.78321C16.038 2.78321 16.9988 3.19206 17.7192 3.9346C17.802 4.01985 17.9151 4.06888 18.0339 4.07099C18.4489 4.07494 19.1322 4.03021 19.9043 3.74301C19.6741 4.01263 19.3521 4.32833 18.9018 4.68196C18.826 4.74158 18.7714 4.82401 18.746 4.91706C18.7207 5.01012 18.7259 5.10887 18.761 5.1987C18.8334 5.38351 19.0212 5.50034 19.215 5.48259C19.3058 5.47538 19.7458 5.43658 20.2614 5.33199C19.966 5.64609 19.572 6.03809 19.0473 6.52059Z" fill="white"/>
</g>
<defs>
<clipPath id="clip0_931_12166">
<rect width="22" height="22" fill="white"/>
</clipPath>
</defs>
</svg>
